{"title":"A good day to die hard-2013-extended-1080p-bluray-x264@Anirban","uid":8698330,"size":2795245386,"categoryP":"video","categoryS":"hd___movies","magnet":"?xt=urn:btih:ac412e64346811305f6c5933f94e3f43f216819d&amp;dn=A+good+day+to+die+hard-2013-extended-1080p-bluray-x264%40Anirban&amp;tr=udp%3A%2F%2Ftracker.openbittorrent.com%3A80&amp;tr=udp%3A%2F%2Fopen.demonii.com%3A1337&amp;tr=udp%3A%2F%2Ftracker.coppersurfer.tk%3A6969&amp;tr=udp%3A%2F%2Fexodus.desync.com%3A6969","seeders":2,"leechers":0,"uploader":"NokiaAnir","files":14,"time":1374005242,"description":"General\nFormat                           : MPEG-4\nFormat profile                   : Base Media\nCodec ID                         : isom\nFile size                        : 2.58 GiB\nDuration                         : 1h 41mn\nOverall bit rate                 : 3 651 Kbps\nEncoded date                     : UTC 2013-07-15 20:16:57\nTagged date                      : UTC 2013-07-15 20:16:57\nWriting application              : Lavf51.12.1\n\n\n\n\n\nVideo\nID                     \t         : 1\nFormat                           : AVC\nFormat/Info                      : Advanced Video Codec\nFormat profile                   : &lt;a class=&quot;__cf_email__&quot; href=&quot;/cdn-cgi/l/email-protection&quot; data-cfemail=&quot;a9ebc8daccc5c0c7cce9e59a8798&quot;&gt;[email&amp;#160;protected]&lt;/a&gt;&lt;script cf-hash='f9e31' type=&quot;text/javascript&quot;&gt;\n/* &lt;![CDATA[ */!function(){try{var t=&quot;currentScript&quot;in document?document.currentScript:function(){for(var t=document.getElementsByTagName(&quot;script&quot;),e=t.length;e--;)if(t[e].getAttribute(&quot;cf-hash&quot;))return t[e]}();if(t&amp;&amp;t.previousSibling){var e,r,n,i,c=t.previousSibling,a=c.getAttribute(&quot;data-cfemail&quot;);if(a){for(e=&quot;&quot;,r=parseInt(a.substr(0,2),16),n=2;a.length-n;n+=2)i=parseInt(a.substr(n,2),16)^r,e+=String.fromCharCode(i);e=document.createTextNode(e),c.parentNode.replaceChild(e,c)}}}catch(u){}}();/* ]]&gt; */&lt;/script&gt;\nFormat settings, CABAC           : No\nFormat settings, ReFrames        : 1 frame\nCodec ID                         : avc1\nCodec ID/Info                    : Advanced Video Coding\nDuration                         : 1h 41mn\nBit rate mode                    : Variable\nBit rate                         : 3,518 Kbps\nWidth                            : 1 280 pixels\nHeight                           : 720 pixels\nDisplay aspect ratio             : 16:9\nFrame rate mode                  : Constant\nFrame rate                       : 29.970 fps\nColor space                      : YUV\nChroma subsampling               : 4:2:0\nBit depth                        : 8 bits\nScan type                        : Progressive\nBits/(Pixel*Frame)               : 0.127\nStream size                      : 2.49 GiB (96%)\nLanguage                         : English\nEncoded date                     : UTC 2013-07-15 20:16:57\nTagged date                      : UTC 2013-07-15 20:16:57\n\n\n\n\n\nAudio\n\nID                               : 2\nFormat                           : AAC\nFormat/Info                      : Advanced Audio Codec\nFormat profile                   : LC\nCodec ID                         : 40\nDuration                         : 1h 41mn\nBit rate mode                    : Variable\nBit rate                         : 128 Kbps\nChannel(s)                       : 2 channels\nChannel positions                : Front: L R\nSampling rate                    : 48.0 KHz\nCompression mode                 : Lossy\nStream size                      : 92.6 MiB (4%)\nLanguage                         : English\nEncoded date                     : UTC 2013-07-15 20:16:57\nTagged date                      : UTC 2013-07-15 20:16:57","torrent":{"xt":"urn:btih:ac412e64346811305f6c5933f94e3f43f216819d","amp;dn":"A+good+day+to+die+hard-2013-extended-1080p-bluray-x264%40Anirban","amp;tr":["udp%3A%2F%2Ftracker.openbittorrent.com%3A80","udp%3A%2F%2Fopen.demonii.com%3A1337","udp%3A%2F%2Ftracker.coppersurfer.tk%3A6969","udp%3A%2F%2Fexodus.desync.com%3A6969"],"infoHash":"ac412e64346811305f6c5933f94e3f43f216819d","infoHashBuffer":{"type":"Buffer","data":[172,65,46,100,52,104,17,48,95,108,89,51,249,78,63,67,242,22,129,157]},"announce":[],"urlList":[]}}